<svg id="google-pagespeed-insights" xmlns="http://www.w3.org/2000/svg" xmlns:xlink="http://www.w3.org/1999/xlink" width="272.73" height="235.5" viewBox="0 0 272.73 235.5">
  <defs>
    <linearGradient id="linear-gradient" x1="11.005" y1="-93.749" x2="12.198" y2="-95.202" gradientUnits="objectBoundingBox">
      <stop offset="0" stop-color="#212121" stop-opacity="0.2"/>
      <stop offset="1" stop-color="#212121" stop-opacity="0"/>
    </linearGradient>
    <radialGradient id="radial-gradient" cx="0.025" cy="0.018" r="1.445" gradientTransform="matrix(0.864, 0, 0, -1, 0.722, -93.498)" gradientUnits="objectBoundingBox">
      <stop offset="0" stop-color="#fff" stop-opacity="0.102"/>
      <stop offset="1" stop-color="#fff" stop-opacity="0"/>
    </radialGradient>
  </defs>
  <path id="Path_1" data-name="Path 1" d="M272.73,37.23V216.91a18.58,18.58,0,0,1-18.57,18.59H18.65A18.58,18.58,0,0,1,.06,216.94V37.23Z" fill="#e1e1e1"/>
  <path id="Path_2" data-name="Path 2" d="M18.65,0h235.5a18.58,18.58,0,0,1,18.58,18.56V37.23H.07V18.59A18.58,18.58,0,0,1,18.64,0Z" fill="#c2c2c2"/>
  <path id="Path_3" data-name="Path 3" d="M254.15,0H18.65A18.64,18.64,0,0,0,.07,18.59v1.48A18.64,18.64,0,0,1,18.65,1.54h235.5a18.64,18.64,0,0,1,18.58,18.59V18.65A18.64,18.64,0,0,0,254.15,0Z" fill="rgba(255,255,255,0.2)"/>
  <path id="Path_4" data-name="Path 4" d="M.07,37.23H272.73v1.48H.07Z" fill="rgba(33,33,33,0.1)"/>
  <path id="Path_5" data-name="Path 5" d="M136.3,92.96a99,99,0,0,0-99,99v.13c0,2.08-.12,4.64,0,6.2H80.55a54.867,54.867,0,0,1,0-6.2,55.81,55.81,0,0,1,85.06-47.45l31.12-31.12a98.76,98.76,0,0,0-60.44-20.57Z" fill="#4285f4"/>
  <path id="Path_6" data-name="Path 6" d="M196.73,113.46,165.59,144.6a55.74,55.74,0,0,1,26.56,47.45,54.871,54.871,0,0,1,0,6.2h43.39c.12-1.48,0-4.12,0-6.2a99,99,0,0,0-38.8-78.583Z" fill="#f44336"/>
  <circle id="Ellipse_1" data-name="Ellipse 1" cx="6.2" cy="6.2" r="6.2" transform="translate(18.65 12.39)" fill="#eee"/>
  <circle id="Ellipse_2" data-name="Ellipse 2" cx="6.2" cy="6.2" r="6.2" transform="translate(43.45 12.39)" fill="#eee"/>
  <path id="Path_7" data-name="Path 7" d="M254.18,233.93H18.59A18.64,18.64,0,0,1,0,215.34v1.48a18.64,18.64,0,0,0,18.59,18.59H254.18a18.64,18.64,0,0,0,18.55-18.59v-1.48a18.64,18.64,0,0,1-18.55,18.59Z" fill="rgba(33,33,33,0.1)"/>
  <path id="Path_8" data-name="Path 8" d="M197.01,117.23a3.05,3.05,0,0,0,.59-1.81,3.11,3.11,0,0,0-3.1-3.1,3,3,0,0,0-1.91.68l-67.56,52a18.58,18.58,0,1,0,27.24,24.33L197,117.23Z" fill="#9e9e9e"/>
  <path id="Path_9" data-name="Path 9" d="M125.03,166.57l67.56-52a3.05,3.05,0,0,1,4.88,1.62,2.879,2.879,0,0,0,.12-.74,3.11,3.11,0,0,0-3.1-3.1,3,3,0,0,0-1.91.68l-67.54,52a18.51,18.51,0,0,0-7.24,14.71v.83a18.57,18.57,0,0,1,7.23-14Z" fill="#fff" opacity="0.2"/>
  <path id="Path_10" data-name="Path 10" d="M197.01,117.23l-44.72,72.14a18.57,18.57,0,0,1-34.43-8.79v.71a18.58,18.58,0,0,0,34.48,9.64l44.72-72.14a3.05,3.05,0,0,0,.59-1.81,2.74,2.74,0,0,0-.12-.8,3.29,3.29,0,0,1-.52,1.05Z" fill="#212121" opacity="0.2"/>
  <path id="Path_11" data-name="Path 11" d="M206.24,141.32a3.05,3.05,0,0,1,0,3.68l-44.72,72.14a18.57,18.57,0,0,1-27.94,4.45l41.62,41.62h88.19A18.58,18.58,0,0,0,282,244.65V217.1Z" transform="translate(-9.27 -27.77)" fill="url(#linear-gradient)"/>
  <path id="Path_12" data-name="Path 12" d="M282,46.36a18.58,18.58,0,0,0-18.57-18.59H27.92A18.58,18.58,0,0,0,9.34,46.35v198.3a18.58,18.58,0,0,0,18.57,18.59H263.42A18.58,18.58,0,0,0,282,244.69Z" transform="translate(-9.27 -27.77)" fill="url(#radial-gradient)"/>
</svg>
