<svg xmlns="http://www.w3.org/2000/svg" viewBox="0 0 27.4 32.66"><title>Asset 19</title><g id="Layer_2" data-name="Layer 2"><g id="Layer_2-2" data-name="Layer 2"><path d="M2.85,13.64a10.81,10.81,0,0,1,.51-3.51,10.52,10.52,0,0,1,8.5-7.34A13.9,13.9,0,0,1,14,2.65a12.12,12.12,0,0,0,3.74-.52A2.31,2.31,0,0,0,18.15,2a1.9,1.9,0,0,0,1.34-2,5.06,5.06,0,0,1,2.27,2.44,3.13,3.13,0,0,1-.53,3.14,10.73,10.73,0,0,1,3.32,8c.24,0,.47.07.69.12a2.93,2.93,0,0,1-1,5.75c-.24,0-.53-.14-.7-.05s-.22.41-.34.62a9.43,9.43,0,0,1-6,4.68A11.82,11.82,0,0,1,6.7,23a8.13,8.13,0,0,1-2.76-3.38c-.09-.19-.17-.27-.41-.22A2.9,2.9,0,0,1,0,16.9a2.93,2.93,0,0,1,2.6-3.24Zm20.27,1.22A10.76,10.76,0,0,0,19,5.8c1.42-1.61,1.7-2.37,1.15-3.08a8.39,8.39,0,0,1-4.92,1.39,15.3,15.3,0,0,0-3.18.29,9.08,9.08,0,0,0-7.53,8c-.13.82-.18,1.66-.27,2.5-.42.1-.86.19-1.28.32a1.32,1.32,0,0,0-1,1A1.19,1.19,0,0,0,3,17.67a2.31,2.31,0,0,0,1.73-.38l.06.13a9.3,9.3,0,0,0,10.44,5.91A8.82,8.82,0,0,0,22.4,18a.43.43,0,0,1,.47-.29c.58,0,1.16,0,1.74,0a1.06,1.06,0,0,0,1.08-.86,1.16,1.16,0,0,0-.8-1.5A15.79,15.79,0,0,0,23.12,14.86Z"/><path d="M13.86,30c-.88.61-1.75,1.22-2.64,1.82a11.28,11.28,0,0,1-1.17.66,1.32,1.32,0,0,1-2-1.27c0-1.47,0-2.94.07-4.41a1.29,1.29,0,0,1,1.89-1l3.56,1.76a.59.59,0,0,0,.6,0c1.15-.58,2.33-1.1,3.45-1.73a1.37,1.37,0,0,1,2,1.23c-.06,1.29,0,2.58.06,3.87,0,.14,0,.29,0,.44-.08,1-.78,1.49-1.86,1.18a4.55,4.55,0,0,1-1.19-.63C15.71,31.29,14.8,30.65,13.86,30Zm-4.24-.94h0v1.32c0,.21.06.34.3.19l2.22-1.4c.18-.12.17-.25,0-.36-.72-.41-1.43-.82-2.16-1.22-.23-.12-.33,0-.33.23C9.63,28.25,9.62,28.66,9.62,29.07Zm8.48,1.62v-3c0-.23-.13-.23-.29-.14l-2.17,1.2c-.24.13-.22.25,0,.39l2.21,1.42A1.07,1.07,0,0,0,18.1,30.69Z"/><path d="M19.69,15.36a1.25,1.25,0,0,1-1.23,1.27,1.34,1.34,0,0,1-1.31-1.34A1.26,1.26,0,0,1,18.38,14,1.33,1.33,0,0,1,19.69,15.36Z"/><path d="M7.86,15.3A1.23,1.23,0,0,1,9.08,14a1.33,1.33,0,0,1,1.31,1.33,1.24,1.24,0,0,1-1.22,1.28A1.33,1.33,0,0,1,7.86,15.3Z"/></g></g></svg>