<svg xmlns="http://www.w3.org/2000/svg" viewBox="0 0 28.95 31.62"><defs><style>.cls-1{stroke:#000;stroke-miterlimit:10;stroke-width:0.3px;}</style></defs><title>Asset 7</title><g id="Layer_2" data-name="Layer 2"><g id="Layer_2-2" data-name="Layer 2"><path class="cls-1" d="M12.05,12.51c-.46.12-.91.21-1.36.33a2.62,2.62,0,0,0-2,2.17,48.79,48.79,0,0,0-.86,6l-.1,0a2.83,2.83,0,0,0,.4,5.64h13a2.83,2.83,0,0,0,2-4.94A3,3,0,0,0,21.35,21a5,5,0,0,0,0-.87c-.25-1.69-.5-3.38-.8-5.06a2.7,2.7,0,0,0-2.13-2.28c-.47-.13-.94-.24-1.42-.36a1.25,1.25,0,0,1-.92-1,.38.38,0,0,1,.07-.27c.22-.34.45-.66.68-1,0-.06.11-.14.17-.15a.5.5,0,0,0,.47-.6c0-.68,0-1.36,0-2a2.52,2.52,0,0,0-.93-2,.91.91,0,0,1-.2-.33,5.82,5.82,0,0,0-.54-1,1,1,0,0,1-.31-.66.86.86,0,0,0-.7-.9.93.93,0,0,0-1.14,1,.55.55,0,0,1-.11.39,1.87,1.87,0,0,0-.72,1.19.75.75,0,0,1-.22.36,2.45,2.45,0,0,0-.9,1.8c0,.76,0,1.53,0,2.29,0,.15.14.42.24.43.36,0,.4.32.54.54s.35.43.5.66a.46.46,0,0,1,.1.35A1.31,1.31,0,0,1,12.05,12.51Zm9.55,9.55a1.86,1.86,0,0,1-.4,3.68c-2.21,0-4.42,0-6.63,0H8a1.86,1.86,0,0,1-.4-3.68,1.2,1.2,0,0,1,1.12.23,2.55,2.55,0,0,0,1.09.47c1.35.28,2.7.55,4.06.75a5.63,5.63,0,0,0,1.58-.1c1.28-.2,2.56-.4,3.83-.65a2.59,2.59,0,0,0,1.12-.46A1.28,1.28,0,0,1,21.6,22.06ZM18.6,21c.42-.1.53-.26.49-.68-.14-1.25-.28-2.49-.41-3.74a.81.81,0,0,1,0-.31c.14-.62.3-1.24.46-1.88a1.72,1.72,0,0,1,.46,1c.26,1.56.5,3.13.76,4.69A1.44,1.44,0,0,1,19,21.84l-4.46.73a1.25,1.25,0,0,1-.19,0,.34.34,0,0,1-.42-.29c0-.23.1-.35.31-.4l1.46-.33Zm-3.41-16H13.94A1.17,1.17,0,0,1,15.19,4.91Zm-2.12,3.6a.65.65,0,0,1,.09-.29c.17-.32.35-.63.53-.94s.2-.49,0-.7a.49.49,0,0,0-.7,0c.3-.59,1-.82,2.14-.7a1.51,1.51,0,0,1,1.31,1.16l-.22-.33a.5.5,0,0,0-.7-.21.48.48,0,0,0-.13.7,2.14,2.14,0,0,0,.25.41A2.21,2.21,0,0,1,16,9.69a1.44,1.44,0,0,1-1.4,1.16,1.42,1.42,0,0,1-1.4-1.16A9.24,9.24,0,0,1,13.07,8.51ZM14,11.79h1.11a2.36,2.36,0,0,0,1.28,1.51c-.31.49-.57,1-.9,1.43a10.08,10.08,0,0,1-3.06,2.56l-.25.14a.48.48,0,0,0-.17.66.47.47,0,0,0,.67.16,10.7,10.7,0,0,0,3.94-3.44c.25-.38.45-.81.68-1.24h0c.82.17.84.17.72,1a11.87,11.87,0,0,1-1.24,3.53c-.09.19-.2.38-.29.57a.47.47,0,0,0,.18.68.47.47,0,0,0,.65-.21,8.47,8.47,0,0,1,.51-.83c.07.58.13,1.16.2,1.76L16,20.55l-1.68.37A1.41,1.41,0,0,0,13,22.36l-.8-.14L10,21.82a1.4,1.4,0,0,1-1.19-1.7c.25-1.59.51-3.18.77-4.78a1.84,1.84,0,0,1,1.51-1.6l.9-.21A2.4,2.4,0,0,0,14,11.79Z"/><path class="cls-1" d="M28.79,29.9a2.44,2.44,0,0,0-1-1.89,2.76,2.76,0,0,0-1.74-.57c0-.12,0-.22,0-.33a1.77,1.77,0,0,0-1.63-1.67c-.35,0-.58.11-.62.39s.13.51.49.57a.81.81,0,0,1,.77,1H3.88a.81.81,0,0,1,.86-1,2,2,0,0,0,.35,0,.47.47,0,0,0,.42-.49.46.46,0,0,0-.41-.46A1.85,1.85,0,0,0,2.89,27.1l0,.34-.25,0A2.54,2.54,0,0,0,.19,29.57a8.63,8.63,0,0,0,0,1.14c0,.66.1.76.76.76H28.19c.46,0,.6-.15.61-.61S28.8,30.22,28.79,29.9Zm-1,.59H1.17a1.6,1.6,0,0,1,1.57-2.06c.86,0,1.72,0,2.58,0H26.15A1.66,1.66,0,0,1,27.81,30.49Z"/><path class="cls-1" d="M6.18,19.77a.46.46,0,0,0,.66,0,.5.5,0,0,0,0-.67c-.07-.09-.16-.17-.23-.26a10.33,10.33,0,0,1-2.57-9A10.62,10.62,0,1,1,23,18.18c-.26.34-.58.63-.82,1a.74.74,0,0,0-.11.54.49.49,0,0,0,.38.27.8.8,0,0,0,.49-.23,11.3,11.3,0,0,0,3-10.36A11.59,11.59,0,1,0,5.58,19.1C5.77,19.33,6,19.56,6.18,19.77Z"/></g></g></svg>