<svg xmlns="http://www.w3.org/2000/svg" viewBox="0 0 34.43 21.75"><title>iAsset 34</title><g id="Layer_2" data-name="Layer 2"><g id="Layer_2-2" data-name="Layer 2"><path d="M15.65,21.75h8.9a1,1,0,0,0,1.11-1.13V18.24c0-.13,0-.25,0-.4h2.7a.84.84,0,0,1,.32.12c.48.28,1,.57,1.45.84.84.46,1.71.88,2.53,1.38a1.13,1.13,0,0,0,1.23.18,1,1,0,0,0,.51-1.05c0-1.72,0-3.44,0-5.16,0-2,0-4,0-6A1,1,0,0,0,33,7.37c-1,.56-2.05,1.09-3,1.7a4.58,4.58,0,0,1-3.16.85,8.82,8.82,0,0,0-1.15,0c0-.75,0-1.44,0-2.13a1,1,0,0,0-1.13-1.13H7l-.44,0c0-.41,0-.79,0-1.16a2.05,2.05,0,0,1,2.09-1.9c2.37,0,4.75,0,7.12,0,.26,0,.48,0,.57.3a3,3,0,0,0,.4.8c.75.79,1.71.58,2.63.47a1.51,1.51,0,0,0,.34.08h6.14a1.66,1.66,0,0,0,1.65-1.48,12.08,12.08,0,0,0,0-2.25A1.65,1.65,0,0,0,25.91,0h-8A1.73,1.73,0,0,0,16.31,1.3a.51.51,0,0,1-.35.43,1.86,1.86,0,0,0-.41-.08c-2.39,0-4.77,0-7.16,0a3.69,3.69,0,0,0-1.18.23A4,4,0,0,0,4.63,5.65c0,.33,0,.66,0,1H4.1c-.7,0-.89.14-1.17.8a.41.41,0,0,1-.31.19c-.55,0-1.1,0-1.64,0a.91.91,0,0,0-1,.95c0,1.35,0,2.69,0,4a1.28,1.28,0,0,0,.35.74,1.06,1.06,0,0,0,.66.23c.62,0,1.24,0,1.88,0v7A1,1,0,0,0,4,21.75H15.65ZM18.39,1.94c2.37,0,4.74,0,7.11,0,0,0,.07,0,.14.05V3.27H18.2c0-.39-.05-.77,0-1.16C18.16,2.05,18.31,1.94,18.39,1.94ZM2.89,11.66H2v-2h.92Zm20.8,8.12H4.86V8.61H23.69Zm4.39-3.9H25.72v-4h2.36Zm4.39,2-1.28-.72c-.05,0-.09-.07-.14-.08-.92-.27-1.06-.93-1-1.8.07-1.25,0-2.5,0-3.74a.49.49,0,0,1,.3-.52c.7-.37,1.38-.77,2.12-1.18Z"/><path d="M7.57,15.44a1,1,0,0,0,.48-.92V11.73h7.3a.93.93,0,0,0,1-1,.94.94,0,0,0-1-1q-4.14,0-8.29,0a.94.94,0,0,0-1,.95c0,1.3,0,2.6,0,3.9A1,1,0,0,0,7.57,15.44Z"/><path d="M20.12,11.73a1,1,0,1,0,0-1.94,1,1,0,0,0-1,1A1,1,0,0,0,20.12,11.73Z"/><path d="M20.15,15.58a1,1,0,1,0,0-1.94,1,1,0,0,0,0,1.94Z"/></g></g></svg>