<svg xmlns="http://www.w3.org/2000/svg" viewBox="0 0 33.74 33.02"><defs><style>.cls-1{fill:#231f20;}</style></defs><title>hicAsset 32</title><g id="Layer_2" data-name="Layer 2"><g id="Layer_2-2" data-name="Layer 2"><path class="cls-1" d="M2.54,2h7.62V6l3.13,3.13v2.74l3.29,3.29,0,3.27a1,1,0,0,0,1,1h0a1,1,0,0,0,1-1l0-3.2,3.11-3.11V9.45a.92.92,0,0,0,.09-.28l3.44-3.44V2h7.52a1,1,0,0,0,0-2H23.22V4.9L20.15,8H16.91a1,1,0,0,0,0,2h2.78v1.35l-2,2h-.17l-2.25-2.26V8.31L12.16,5.18V0H2.54a1,1,0,0,0,0,2Z"/><path class="cls-1" d="M21.28,13.87a1,1,0,0,0,.24,1.39l8.64,6.13-12.81,9.2-4.8-3.19L20,22.13l3.84,0h0a1,1,0,0,0,0-2l-4.5-.05L9,27.45,17.4,33,33.61,21.38,22.68,13.63A1,1,0,0,0,21.28,13.87Z"/><path class="cls-1" d="M9.63,19.66a1,1,0,0,0-1,1,1,1,0,0,0,1,1l1.5.06L7.8,24,3.43,20.87l8.83-6.38a1,1,0,0,0,.22-1.39,1,1,0,0,0-1.39-.23L0,20.88l7.79,5.56,9.27-6.5Z"/></g></g></svg>