<svg xmlns="http://www.w3.org/2000/svg" viewBox="0 0 26.17 22.73"><title>Asset 12</title><g id="Layer_2" data-name="Layer 2"><g id="Layer_2-2" data-name="Layer 2"><path d="M16.2,10.94c2,0,3.91-.08,5.86-.07.12,0,.32.44.33.69A22.71,22.71,0,0,0,22.44,14c.08.51,0,.71-.47.74s-1,0-1.72,0c.35,1.21-.47,1.79-1.16,2.49a3.23,3.23,0,0,0-.34,3.35,6.89,6.89,0,0,1,.61,1.13,3.16,3.16,0,0,1,0,1,2.58,2.58,0,0,1-.71-.53c-.36-.53-.65-1.11-1-1.72-2.94,2.61-5.89,2.71-8.91,0-.34.57-.63,1.15-1,1.66a3.08,3.08,0,0,1-.79.55,5.47,5.47,0,0,1,.1-1,2,2,0,0,1,.44-.8,2.17,2.17,0,0,0,.07-2.77,1.46,1.46,0,0,0-.93-.52c-1.3-.25-1.38-.28-1.38-1.58,0-.59-.19-.82-.79-.82s-.79-.23-.37-.8a1.92,1.92,0,0,0,.29-.92c.1-1,.15-2,.21-2.94a1.94,1.94,0,0,0,0-.64c-.33-1-.34-1,.76-1,.57,0,1.15.08,1.91.13,0-1,.07-2,.17-2.9,0-.2.4-.54.58-.52,1.34.15,2.67.35,4,.57.47.08.69.29.42.84a12,12,0,0,0-.56,1.8h2.62A15,15,0,0,0,13.9,7c-.22-.49,0-.71.39-.78,1.36-.22,2.73-.43,4.1-.58.16,0,.48.34.53.57.21,1.07.31,2.17.54,3.24.11.49,0,.68-.45.75-.79.12-1.58.23-2.36.37-.17,0-.3.22-.45.34l-1.82-.23.09-1-.81.07v1.25l1.88.54Zm-6.14-.24L5.48,9.82l-.29,4.57c1.51.25,2.91.57,3.58-1.21a1.17,1.17,0,0,1,.45-.46A2,2,0,0,0,10.06,10.7ZM8.3,16.83a4.87,4.87,0,0,0,4.94,4.77A4.93,4.93,0,0,0,18,16.76a4.87,4.87,0,0,0-9.73.07Zm10-7.37-.45-2.85L15,7l.45,2.87Zm2.89,4.35v-2.1H17.05C16.8,13.46,18.5,14.3,21.22,13.81ZM11.32,7,8.43,6.6,8,9.46l2.87.44ZM7.61,15.47H6.14v1.16l1.2.26ZM11.78,9.8c.21.62.37,1.11-.49,1-.13,0-.29.31-.43.48l.16.15,1.64-.38V9.8Z"/><path d="M2.21,19.08a10.46,10.46,0,0,1-1,1.15c-.16.13-.47.09-.71.12a4.6,4.6,0,0,1,.05-.64c0-.08.1-.16.17-.22,1.39-1.14,1.58-2.65,1.52-4.36-.11-2.79,0-5.59,0-8.39v-1A10.11,10.11,0,0,1,.79,6.1,2.33,2.33,0,0,1,0,5.91c.17-.21.31-.52.53-.61A17.92,17.92,0,0,1,2.9,4.59a1.08,1.08,0,0,0,1-1.24A24.9,24.9,0,0,1,1.14,2C.72,1.68.53,1.07.24.61A5.29,5.29,0,0,1,1.77,0,10.69,10.69,0,0,1,3.85.28C4.23.33,4.69.67,5,0a1.45,1.45,0,0,1,.62.2c.3.23.51.59.83.78.73.43,1.54.74,2.24,1.23a1.23,1.23,0,0,1,.48,1,1.26,1.26,0,0,1-1,.63c-1.07,0-2.13-.16-3.32-.27a3.8,3.8,0,0,1-.28.82c-.17.28-.42.64-.7.7-.63.14-.73.48-.73,1.05,0,3.47,0,6.94,0,10.41a2.44,2.44,0,0,0,.7,1.9,9.67,9.67,0,0,1,1,1.21c.1.13,0,.37,0,.56-.22,0-.52.08-.65,0a11.87,11.87,0,0,1-1.08-1.15c0,.78.05,1.34,0,1.89,0,.25-.26.47-.39.71-.17-.25-.44-.48-.47-.74A14.3,14.3,0,0,1,2.21,19.08ZM5.53,1.56c-.52.53-1,1.24-1.14-.11,0-.09-.16-.2-.26-.22-.9-.17-1.81-.32-3-.51C2.44,2.12,6.33,3.3,8.27,2.9Z"/><path d="M22.32,4.76a1,1,0,0,0,.9,1.15,17.41,17.41,0,0,1,2.54.8c.18.06.27.38.41.58-.21.06-.43.21-.63.18A12.4,12.4,0,0,1,24,7.08c0,.31-.07.56-.07.82,0,2.58,0,5.16,0,7.74,0,1,.76,1.35,1.14,2,.23.42,1.06.65.5,1.31a7.4,7.4,0,0,1-1.14-.74,5,5,0,0,1-.49-.57c0,.84,0,1.43,0,2,0,.24-.27.46-.42.69-.15-.23-.41-.44-.43-.67a18.28,18.28,0,0,1,0-2,7.92,7.92,0,0,1-.91,1,2.32,2.32,0,0,1-.77.25c0-.26-.06-.65.09-.77,1.61-1.29,1.7-3,1.61-4.89s0-3.93,0-5.9c0-.24-.13-.66-.24-.68-1-.15-1.25-.93-1.42-1.76a25,25,0,0,1-2.66.24c-.39,0-.77-.36-1.16-.55a3.6,3.6,0,0,1,.65-1.1,12.94,12.94,0,0,1,1.6-.89c.33-.2.6-.49.91-.72.13-.11.4-.26.45-.21.62.58,1.25.08,1.87,0a6,6,0,0,1,1.47,0,1.27,1.27,0,0,1,.82.59c.09.2-.14.69-.36.84C24.15,3.78,23.26,4.24,22.32,4.76Zm-3.42-.5a8.67,8.67,0,0,0,5.16-1.53c-.83.12-1.84-.39-2.38.71a.41.41,0,0,1-.39.12C20.25,2.94,19.67,3.92,18.9,4.26Z"/></g></g></svg>