<svg xmlns="http://www.w3.org/2000/svg" viewBox="0 0 40.81 30.85"><defs><style>.cls-1{fill:#231f20;}</style></defs><title>Asset 27</title><g id="Layer_2" data-name="Layer 2"><g id="Layer_2-2" data-name="Layer 2"><path class="cls-1" d="M38.67,0H2.13A2.14,2.14,0,0,0,0,2.13V28.72a2.14,2.14,0,0,0,2.13,2.13H38.67a2.14,2.14,0,0,0,2.14-2.13V2.13A2.14,2.14,0,0,0,38.67,0Zm.14,28.72a.13.13,0,0,1-.14.13H2.13A.13.13,0,0,1,2,28.72V9.92H38.81Zm0-20.8H2V2.13A.13.13,0,0,1,2.13,2H38.67a.13.13,0,0,1,.14.13Z"/><path class="cls-1" d="M6.7,4a.95.95,0,1,0,1,1A.95.95,0,0,0,6.7,4Z"/><path class="cls-1" d="M9.47,4a.95.95,0,1,0,0,1.89A.95.95,0,0,0,9.47,4Z"/><path class="cls-1" d="M12.23,4a.95.95,0,1,0,.95,1A.95.95,0,0,0,12.23,4Z"/><polygon class="cls-1" points="16.81 20.41 13.14 18.93 16.81 17.42 16.81 16.27 12.02 18.48 12.02 19.34 16.81 21.56 16.81 20.41"/><polygon class="cls-1" points="22.29 14.17 21.36 14.17 17.8 23.43 18.73 23.43 22.29 14.17"/><polygon class="cls-1" points="28.43 18.48 23.43 16.26 23.43 17.38 27.3 18.89 23.43 20.43 23.43 21.55 28.43 19.33 28.43 18.48"/></g></g></svg>