<svg xmlns="http://www.w3.org/2000/svg" viewBox="0 0 31.98 28.84"><title>Asset 24</title><g id="Layer_2" data-name="Layer 2"><g id="Layer_2-2" data-name="Layer 2"><path d="M15.2,9.66V1c0-.57.26-1,.85-.95s.76.41.76,1c0,2.4,0,4.8,0,7.2V9.62c.29,0,.55,0,.8,0,3.2,0,6.4.08,9.6,0A4.59,4.59,0,0,1,32,14.34c-.06,3.25,0,6.5,0,9.75a4.57,4.57,0,0,1-4.46,4.75,4.53,4.53,0,0,1-4.6-4.38c-.06-.6-.41-.55-.8-.55H10.91c-.41,0-.82,0-1.23,0s-.58.15-.62.59A4.46,4.46,0,0,1,5,28.79a4.4,4.4,0,0,1-4.93-4q-.12-5.54,0-11A4.28,4.28,0,0,1,4.3,9.67c3.35,0,6.69,0,10,0ZM1.81,19.25c0,1.62,0,3.25,0,4.87A2.8,2.8,0,0,0,4.33,27a2.74,2.74,0,0,0,3-2.62A2.21,2.21,0,0,1,9.84,22H22.06c1.78,0,2.55.71,2.71,2.5A2.64,2.64,0,0,0,27.43,27a2.56,2.56,0,0,0,2.72-2.44c.07-3.51.09-7,0-10.54a2.63,2.63,0,0,0-2.92-2.57H4.87a2.81,2.81,0,0,0-3,3.09C1.81,16.1,1.81,17.67,1.81,19.25Z"/><path d="M8.19,18c0,.67,0,1.27,0,1.87S7.8,21,7.2,21s-.92-.4-1-1.13c0-.58,0-1.16,0-1.74,0,0,0-.08-.1-.18H4.26c-.67,0-1-.36-1-.95s.35-.94,1-1,1.26,0,2,0c0-.64,0-1.24,0-1.83,0-.8.34-1.21.94-1.21s1,.44,1,1.23c0,.58,0,1.15,0,1.81.7,0,1.32,0,1.94,0s1.18.46,1.1,1a1,1,0,0,1-1.09.93C9.52,18,8.9,18,8.19,18Z"/><path d="M16,17.83H14c-.54,0-.88-.27-.86-.84s.35-.76.86-.76h4c.54,0,.9.26.9.81s-.35.8-.9.8Z"/><path d="M26,14.61a1.16,1.16,0,0,1-1.18,1.2,1.21,1.21,0,0,1-1.26-1.22,1.27,1.27,0,0,1,1.2-1.22A1.23,1.23,0,0,1,26,14.61Z"/><path d="M22.41,18.13a1.25,1.25,0,0,1-1.23-1.24,1.27,1.27,0,0,1,1.3-1.19,1.21,1.21,0,0,1,1.16,1.23A1.16,1.16,0,0,1,22.41,18.13Z"/><path d="M28.32,16.91a1.21,1.21,0,0,1-2.42,0,1.21,1.21,0,1,1,2.42,0Z"/><path d="M26,19.23a1.16,1.16,0,0,1-1.2,1.23,1.23,1.23,0,0,1-1.24-1.23A1.29,1.29,0,0,1,24.71,18,1.25,1.25,0,0,1,26,19.23Z"/></g></g></svg>