<svg xmlns="http://www.w3.org/2000/svg" viewBox="0 0 35.83 36.28"><defs><style>.cls-1{fill:#0f0a0f;}</style></defs><title>hicAsset 29</title><g id="Layer_2" data-name="Layer 2"><g id="Layer_2-2" data-name="Layer 2"><path class="cls-1" d="M14.61,20.35c-1.68-1-2.59.4-2.65,1.55s-2.32.84-2.32.84c1.54.63,4.33.06,5-.21S16.29,21.32,14.61,20.35Z"/><path class="cls-1" d="M32.5,4l2.27-2.26a1,1,0,0,0,0-1.42,1,1,0,0,0-1.41,0L29.82,3.83H4.38A4.39,4.39,0,0,0,0,8.21V25.13a4.39,4.39,0,0,0,4.38,4.38H16.92v4.77H11.15a1,1,0,1,0,0,2H24.68a1,1,0,0,0,0-2H18.92V29.51H31.45a4.39,4.39,0,0,0,4.38-4.38V8.21A4.38,4.38,0,0,0,32.5,4Zm1.33,21.16a2.39,2.39,0,0,1-2.38,2.38H4.38A2.39,2.39,0,0,1,2,25.13V8.21A2.39,2.39,0,0,1,4.38,5.83H27.82L15.68,18a1,1,0,0,0,.7,1.71,1,1,0,0,0,.71-.29L30.65,5.83h.8a2.39,2.39,0,0,1,2.38,2.38Z"/></g></g></svg>