<svg xmlns="http://www.w3.org/2000/svg" viewBox="0 0 29.5 29.5"><title>Asset 20</title><g id="Layer_2" data-name="Layer 2"><g id="Layer_2-2" data-name="Layer 2"><path d="M28.73,27.67a.62.62,0,0,1-.3-.6V21.44a1.09,1.09,0,0,1,0-.18V21l.21,0a.83.83,0,0,0,.82-.68c.07-.35-.06-.62-.46-.94q-3.39-2.64-6.75-5.3a.79.79,0,0,1-.27-.57c0-.94,0-1.89,0-2.83V8.08h2.14a1,1,0,0,0,1-.67c.09-.31,0-.59-.53-1L15.55.29a1.24,1.24,0,0,0-1.6,0L4.69,6.55a.73.73,0,0,0-.39.74A.79.79,0,0,0,4.86,8a1.65,1.65,0,0,0,.57.11h2l0,.31a1,1,0,0,1,0,.16v.8c0,1.8,0,3.61,0,5.41a.86.86,0,0,1-.22.55Q5.81,17.1,4.33,18.85l-.51.62a2,2,0,0,0-.17.23,1.49,1.49,0,0,1-.57.57,1.6,1.6,0,0,1-.84.09,2.62,2.62,0,0,0-.28,0A1.89,1.89,0,0,0,0,22.3v5.27A1.91,1.91,0,0,0,1.93,29.5H3.8A.22.22,0,0,0,4,29.39c.58-.71,1.17-1.41,1.76-2.12l1.11-1.33a.33.33,0,0,0,0-.06l.17-.36.42.35v2.64a1.35,1.35,0,0,0,.06.46.81.81,0,0,0,1.57-.31c0-.88,0-1.76,0-2.64V24.16h11.2v4.46a.81.81,0,0,0,.36.72.76.76,0,0,0,.83.07.79.79,0,0,0,.45-.78V24.49l.55.41,1.64,1.29q2,1.56,4,3.11a.82.82,0,0,0,.63.19A.83.83,0,0,0,29.17,28ZM7.51,19.17c0,1.11,0,2.18,0,3.24a.72.72,0,0,1-.2.45L3.38,27.57a.83.83,0,0,1-.54.26l-.39,0H1.68V22H2.85a2,2,0,0,0,1.67-.79l1.66-2,.66-.79L7,18.26l.53-.6Zm12.82,3.3H9.16v-9H20.33Zm0-10.71H9.16V8.1H20.34ZM7.86,6.42l.82-.58L9,5.64l1.34-.91L14.39,2a.57.57,0,0,1,.72,0l4.72,3.2,1.85,1.25ZM23.57,23.61l-.65-.51-.78-.63a.48.48,0,0,1-.14-.39c0-1.84,0-3.68,0-5.52l0-.12.09-.38.33.19.26.21.73.58a.46.46,0,0,1,.15.37v6.2Zm3.2,1.88,0,.11-.11.36-.3-.17-.27-.21L25.39,25a.54.54,0,0,1-.18-.4V18.43l.64.51c.28.22.54.42.79.63a.44.44,0,0,1,.13.37Z"/><path d="M14.75,20.92h0a3,3,0,0,0,3-3,2.92,2.92,0,0,0-.86-2.08A3,3,0,0,0,14.74,15h0a3,3,0,1,0,0,5.92ZM13.83,17a1.32,1.32,0,0,1,.92-.38h0a1.32,1.32,0,0,1,0,2.64h0a1.28,1.28,0,0,1-.92-.38,1.33,1.33,0,0,1,0-1.88Z"/></g></g></svg>