<svg xmlns="http://www.w3.org/2000/svg" viewBox="0 0 36 32.45"><defs><style>.cls-1{fill:#010101;}</style></defs><title>hicAsset 30</title><g id="Layer_2" data-name="Layer 2"><g id="Layer_2-2" data-name="Layer 2"><path class="cls-1" d="M35.59,26.87l-2.26-1.63a4.38,4.38,0,0,0,2.5-3.94V4.38A4.39,4.39,0,0,0,31.45,0H4.38A4.39,4.39,0,0,0,0,4.38V21.3a4.39,4.39,0,0,0,4.38,4.38H16.91v4.77H11.15a1,1,0,1,0,0,2H24.68a1,1,0,0,0,0-2H18.91V25.68H30.52l3.89,2.81a1,1,0,0,0,.59.19,1,1,0,0,0,.81-.41A1,1,0,0,0,35.59,26.87ZM4.38,23.68A2.39,2.39,0,0,1,2,21.3V4.38A2.39,2.39,0,0,1,4.38,2H31.45a2.39,2.39,0,0,1,2.38,2.38V21.3a2.39,2.39,0,0,1-2.38,2.38h-.28L16.59,13.15a1,1,0,0,0-1.4.23,1,1,0,0,0,.23,1.39l12.33,8.91Z"/><path class="cls-1" d="M13.3,10.71a1,1,0,1,0-1.19,1.6l.54.41a1,1,0,0,0,.6.2,1,1,0,0,0,.59-1.81Z"/><path class="cls-1" d="M10.61,10.41a.23.23,0,0,0,.15.05.23.23,0,0,0,.2-.1.25.25,0,0,0-.05-.35l-2-1.48a.25.25,0,1,0-.3.4Z"/><path class="cls-1" d="M16.28,7.44a.25.25,0,0,0-.35,0l-1.48,2a.24.24,0,0,0,.05.35.27.27,0,0,0,.15.05.28.28,0,0,0,.2-.1l1.48-2A.25.25,0,0,0,16.28,7.44Z"/><path class="cls-1" d="M11.14,14,9.65,16a.25.25,0,0,0,.06.35.24.24,0,0,0,.14.05.28.28,0,0,0,.21-.1l1.48-2a.25.25,0,1,0-.4-.3Z"/><path class="cls-1" d="M15.41,11.54a.24.24,0,0,0,.24.21h0l2.46-.36a.25.25,0,0,0,.21-.29.25.25,0,0,0-.28-.21l-2.46.37A.24.24,0,0,0,15.41,11.54Z"/><path class="cls-1" d="M10.41,12.28a.25.25,0,0,0-.29-.21l-2.46.37a.25.25,0,0,0-.21.28.26.26,0,0,0,.25.21h0l2.46-.37A.25.25,0,0,0,10.41,12.28Z"/><path class="cls-1" d="M12.5,9.41h0a.25.25,0,0,0,.21-.28l-.37-2.46a.25.25,0,1,0-.49.07l.36,2.46A.25.25,0,0,0,12.5,9.41Z"/><path class="cls-1" d="M13.28,14.41a.25.25,0,0,0-.21.28l.36,2.47a.26.26,0,0,0,.25.21h0a.26.26,0,0,0,.22-.29l-.37-2.46A.25.25,0,0,0,13.28,14.41Z"/></g></g></svg>