<svg xmlns="http://www.w3.org/2000/svg" viewBox="0 0 19 26"><title>Asset 13</title><g id="Layer_2" data-name="Layer 2"><g id="Layer_2-2" data-name="Layer 2"><path d="M4.94,6.55a2.51,2.51,0,0,1,2.46.21,2.52,2.52,0,0,1,3.15-.93c0-.38,0-.72,0-1.07,0-.9,0-1.8.06-2.7A2.41,2.41,0,0,1,13.3,0a2.47,2.47,0,0,1,2.18,2.41V10.5a11.52,11.52,0,0,1,1.24.13A2.88,2.88,0,0,1,19,13.39a23.79,23.79,0,0,1,0,2.8,5.78,5.78,0,0,1-1.8,3.53c-.5.48-1,1-1.46,1.47a.7.7,0,0,0-.19.45c0,1.18,0,2.35,0,3.53,0,.57-.24.82-.82.83h-11a.71.71,0,0,1-.8-.81V21.13c0-.11,0-.28-.12-.33A5,5,0,0,1,.37,17.41,10.94,10.94,0,0,1,0,14.88C0,11.46,0,8.05,0,4.63a2.47,2.47,0,0,1,4.9-.47,2.56,2.56,0,0,1,0,.39Zm2.79,7.58,0-.07h0l-.24.19a2.34,2.34,0,0,1-1.78.5,2.42,2.42,0,0,1-2.17-2.51c0-2.3,0-4.59,0-6.89,0-.27,0-.55,0-.82a1,1,0,0,0-2.09.07c0,3.58,0,7.15,0,10.73A6.41,6.41,0,0,0,2,18a3,3,0,0,0,1.62,1.72.73.73,0,0,1,.57.85v4.05h9.85c0-1.12,0-2.22,0-3.32a1,1,0,0,1,.33-.78c.61-.6,1.21-1.21,1.82-1.82a4,4,0,0,0,1.24-2.3,25.93,25.93,0,0,0,.12-2.79A1.55,1.55,0,0,0,16,12H11a1.05,1.05,0,1,0,0,2.1h3.59c.54,0,.85.26.86.69s-.3.71-.87.72-1.25,0-1.87,0A2.38,2.38,0,0,0,10.44,17c-.19.49-.38,1-.58,1.47a.71.71,0,0,1-.93.44.69.69,0,0,1-.37-1,8.89,8.89,0,0,1,1.31-2.7,7.47,7.47,0,0,0-.81-.53C8.63,14.5,8.17,14.32,7.73,14.13ZM12,10.54c.63,0,1.22,0,1.81,0,.24,0,.29-.09.29-.31,0-2.55,0-5.11,0-7.66A1.45,1.45,0,0,0,14,2a1,1,0,0,0-1.12-.61,1,1,0,0,0-.87,1v8.08Zm-4.93,0V8.87A1.08,1.08,0,0,0,6,7.73a1.07,1.07,0,0,0-1,1.12v3.39a1.06,1.06,0,1,0,2.11,0Zm1.4,1.79a2.75,2.75,0,0,1,2-1.75.32.32,0,0,0,.13-.25c0-.77,0-1.53,0-2.3a1.26,1.26,0,0,0-.24-.63,1,1,0,0,0-1.15-.32,1.09,1.09,0,0,0-.7,1.06c0,.88,0,1.77,0,2.66Z"/></g></g></svg>