<svg xmlns="http://www.w3.org/2000/svg" viewBox="0 0 34.4 31.54"><defs><style>.cls-1{fill:none;stroke:#010101;stroke-linecap:round;stroke-linejoin:round;stroke-width:2px;}</style></defs><title>Asset 7</title><g id="Layer_2" data-name="Layer 2"><g id="Layer_1-2" data-name="Layer 1"><path class="cls-1" d="M13.58,5.63a1.07,1.07,0,0,0,0,1.5L15.3,8.85a1.08,1.08,0,0,0,1.51,0l4.05-4a6.45,6.45,0,0,1-8.53,8.54L4.89,20.77a2.28,2.28,0,1,1-3.22-3.23L9.1,10.11a6.45,6.45,0,0,1,8.54-8.54L13.59,5.62Z"/><path class="cls-1" d="M28.21,10.11a3,3,0,0,1,4.3,4.3h0L18,28.93l-5.92,1.61,1.61-5.91Z"/></g></g></svg>