<svg xmlns="http://www.w3.org/2000/svg" viewBox="0 0 31.9 22.78"><defs><style>.cls-1{fill:none;stroke:#010101;stroke-linecap:round;stroke-linejoin:round;stroke-width:1.8px;}</style></defs><title>Asset 10</title><g id="Layer_2" data-name="Layer 2"><g id="Layer_2-2" data-name="Layer 2"><path class="cls-1" d="M21.63,16.84V12.58a2.92,2.92,0,0,0-2.92-2.92H12.87A2.92,2.92,0,0,0,10,12.58v4.26"/><circle class="cls-1" cx="15.79" cy="3.82" r="2.92"/><path class="cls-1" d="M9.5,16.78,8.22,14.44a1.83,1.83,0,0,0-1.83-1.83H2.73A1.83,1.83,0,0,0,.9,14.44v7.44"/><circle class="cls-1" cx="4.56" cy="8.95" r="1.83"/><path class="cls-1" d="M31,21.88V14.44a1.83,1.83,0,0,0-1.83-1.83H25.51a1.83,1.83,0,0,0-1.83,1.83l-2,2.46"/><circle class="cls-1" cx="27.34" cy="8.95" r="1.83"/></g></g></svg>