<svg xmlns="http://www.w3.org/2000/svg" viewBox="0 0 26.24 31.36"><defs><style>.cls-1{fill:none;stroke:#010101;stroke-linecap:round;stroke-linejoin:round;stroke-width:1.5px;}</style></defs><title>Asset 6</title><g id="Layer_2" data-name="Layer 2"><g id="Layer_2-2" data-name="Layer 2"><rect class="cls-1" x="1.87" y="6.09" width="19.35" height="23.7" rx="2.77" transform="matrix(0.99, -0.13, 0.13, 0.99, -2.24, 1.66)"/><circle class="cls-1" cx="11.42" cy="14.47" r="5.57"/><line class="cls-1" x1="5.9" y1="15.19" x2="16.93" y2="13.74"/><path class="cls-1" d="M10.69,9a8.48,8.48,0,0,1,2.93,5.23A8.52,8.52,0,0,1,12.14,20a8.51,8.51,0,0,1-2.93-5.23A8.49,8.49,0,0,1,10.69,9Z"/><line class="cls-1" x1="5.85" y1="26.05" x2="18.85" y2="24.34"/><path class="cls-1" d="M22.55,25.5,25.46,5.89a2.78,2.78,0,0,0-2.34-3.14L9.46.78A2.79,2.79,0,0,0,6.31,3.13L5.82,6.35"/></g></g></svg>