<svg xmlns="http://www.w3.org/2000/svg" viewBox="0 0 40.81 30.85"><defs><style>.cls-1{fill:#0f0a0f;}</style></defs><title>Asset 26</title><g id="Layer_2" data-name="Layer 2"><g id="Layer_2-2" data-name="Layer 2"><path class="cls-1" d="M38.67,0H2.13A2.14,2.14,0,0,0,0,2.13V28.72a2.14,2.14,0,0,0,2.13,2.13H38.67a2.14,2.14,0,0,0,2.14-2.13V2.13A2.14,2.14,0,0,0,38.67,0Zm.14,28.72a.13.13,0,0,1-.14.13H2.13A.13.13,0,0,1,2,28.72V9.92H38.81Zm0-20.8H2V2.13A.13.13,0,0,1,2.13,2H38.67a.13.13,0,0,1,.14.13Z"/><path class="cls-1" d="M6.7,4a.95.95,0,1,0,1,1A.95.95,0,0,0,6.7,4Z"/><path class="cls-1" d="M9.47,4a.95.95,0,1,0,0,1.89A.95.95,0,0,0,9.47,4Z"/><path class="cls-1" d="M12.23,4a.95.95,0,1,0,.95,1A.95.95,0,0,0,12.23,4Z"/><path class="cls-1" d="M13.82,23c-1-1.17-2.08-.35-2.42.51s-2,.06-2,.06a7.12,7.12,0,0,0,3.88,1.1C13.87,24.67,14.85,24.19,13.82,23Z"/><path class="cls-1" d="M15.34,23a.82.82,0,0,0,.61-.05l18-9.07a.8.8,0,1,0-.72-1.44l-18,9.08a.8.8,0,0,0-.36,1.08A.77.77,0,0,0,15.34,23Z"/></g></g></svg>