<?xml version="1.0" standalone="no"?>
<!DOCTYPE svg PUBLIC "-//W3C//DTD SVG 20010904//EN"
 "http://www.w3.org/TR/2001/REC-SVG-20010904/DTD/svg10.dtd">
<svg version="1.0" xmlns="http://www.w3.org/2000/svg"
 width="560.000000pt" height="560.000000pt" viewBox="0 0 560.000000 560.000000"
 preserveAspectRatio="xMidYMid meet">
<metadata>
Created by potrace 1.14, written by Peter Selinger 2001-2017
</metadata>
<g transform="translate(0.000000,560.000000) scale(0.100000,-0.100000)"
fill="#000000" stroke="none">
<path d="M1312 4197 l-1312 -1312 1403 -1403 1402 -1402 1398 1398 1397 1397
-952 953 -953 952 -910 -910 -910 -910 520 -520 520 -520 485 485 485 485
-113 112 -112 113 -368 -368 c-202 -202 -372 -367 -377 -367 -6 0 -141 131
-300 290 l-290 290 680 680 c374 374 684 680 690 680 6 0 335 -325 733 -723
l722 -722 -1168 -1168 c-642 -642 -1172 -1167 -1177 -1167 -5 0 -538 528
-1182 1172 l-1173 1173 1087 1087 1088 1088 292 -292 293 -293 112 113 113
112 -400 403 c-220 222 -402 405 -405 405 -3 1 -596 -589 -1318 -1311z"/>
</g>
</svg>
