<svg xmlns="http://www.w3.org/2000/svg" viewBox="0 0 766.31 744.93"><defs><style>.cls-1{fill:#0f0a0f;}.cls-2{fill:#010101;}</style></defs><title>Asset 18</title><g id="Layer_2" data-name="Layer 2"><g id="Layer_2-2" data-name="Layer 2"><path class="cls-1" d="M277.66,164a6.26,6.26,0,0,0-4.84-2.5c-.17,0-.2,0-23.26.83l65.84-45L388,110.8l-57,50.73-37.2-.41a4.93,4.93,0,0,0-.11,9.85l41,.46,82.18-73.1L312,107.73l-96.08,65.68,17-.63,36.82-1.35c0,2.23-.47,6.73-2.47,15.59l-.23,1c-2.69,13,.7,28.15,9.31,41.66.86,1.34,1.82,2.72,2.8,4.12,6.5,9.26,7.63,12.54,2.59,16.45a4.93,4.93,0,0,0,4.82,8.48,4.82,4.82,0,0,0,1.22-.7c13.21-10.24,4.59-22.54-.56-29.88-.9-1.28-1.78-2.54-2.57-3.77-7.24-11.35-10.14-23.88-8-34.35l.19-.87C280.68,172.26,280,167,277.66,164Z"/><path class="cls-1" d="M379.59,140.61A4.93,4.93,0,0,0,376.8,147l16.9,43.15c-6.72,8.73-36.35,42.67-84.08,33l-15.08-38.53a4.93,4.93,0,0,0-9.18,3.59l17,43.4,2.53.58c20.93,4.86,38.84,2.19,53.43-3.52,29-11.35,44.82-34.73,45.06-35.08l1.41-2.14L386,143.4A4.92,4.92,0,0,0,379.59,140.61Z"/><path class="cls-2" d="M487.27,150.11a14.72,14.72,0,0,0-20.79,0l-52.8,52.8a3.69,3.69,0,0,0-.94,1.62L406.88,226a3.64,3.64,0,0,0,3.51,4.59,3.82,3.82,0,0,0,.95-.13l21.51-5.87a3.59,3.59,0,0,0,1.62-.94l52.8-52.79A14.72,14.72,0,0,0,487.27,150.11Zm-5.14,15.64L430,217.87l-14.44,3.94,3.94-14.44,52.11-52.12a7.43,7.43,0,0,1,10.51,10.5Z"/><path class="cls-2" d="M118.14,452A9.12,9.12,0,0,0,130,457l42.93-17.33a2.23,2.23,0,0,0,.93-.7l8.56-10.85a2.26,2.26,0,0,0-1.47-3.63l-13.69-1.86a2.15,2.15,0,0,0-1.15.14L123.18,440.1A9.12,9.12,0,0,0,118.14,452Zm6.73-7.68,42.37-17.11,9.2,1.26-5.75,7.28-42.37,17.11a4.61,4.61,0,1,1-3.45-8.54Z"/><polygon points="502.91 44.1 452.43 74.49 469.72 103.22 496.65 87.01 492.9 80.78 472.2 93.24 462.41 76.97 500.43 54.08 524.67 94.35 459.65 133.5 420.39 68.28 480.73 31.96 490.48 48.16 496.71 44.41 483.21 21.98 410.41 65.81 457.17 143.48 534.65 96.83 502.91 44.1"/><path class="cls-2" d="M134,121.28A47.75,47.75,0,1,0,181.83,169,47.84,47.84,0,0,0,134,121.28Zm40.53,53.11a46.69,46.69,0,0,0-27.94,4.51l-8.21-10.46,28.38-23.8A40.6,40.6,0,0,1,174.94,169,41.23,41.23,0,0,1,174.55,174.39Zm-12.34-34.91L134.14,163l-5.52-7a45,45,0,0,0,18.58-25.61A41.26,41.26,0,0,1,162.21,139.48Zm-21.69-10.74a38.18,38.18,0,0,1-16.15,21.83L111.91,134.7a39.93,39.93,0,0,1,28.61-6Zm-34.06,10.17,11.69,14.89a41.94,41.94,0,0,1-23,2.51A40.87,40.87,0,0,1,106.46,138.91ZM93.59,163a51.32,51.32,0,0,0,8.77.83,47.92,47.92,0,0,0,20.19-4.43l6.31,8L100,191.67A40.57,40.57,0,0,1,93.09,169,41.2,41.2,0,0,1,93.59,163Zm10.71,34,28.82-24.17,7.62,9.7a45.78,45.78,0,0,0-17.2,25.91A40.93,40.93,0,0,1,104.3,197Zm26,12.66A38.84,38.84,0,0,1,145,188L156.76,203A40.73,40.73,0,0,1,134,209.89C132.77,209.89,131.54,209.81,130.32,209.7Zm31.8-11L151,184.51a40,40,0,0,1,22.1-3.38A41,41,0,0,1,162.12,198.66Z"/><path class="cls-2" d="M665.86,138.39l-91.28-37.66a16,16,0,0,0-20.88,8.69l-23.54,57.05a16,16,0,0,0,8.68,20.88l42.27,17.43-6.63,16.08-19.45-8a3.65,3.65,0,0,0-2.78,6.75l45.64,18.83a3.65,3.65,0,0,0,2.78-6.75l-19.45-8,6.64-16.07L630.12,225A16,16,0,0,0,651,216.32l23.54-57A16,16,0,0,0,665.86,138.39Zm-21.6,75.15a8.7,8.7,0,0,1-11.35,4.72L541.63,180.6a8.7,8.7,0,0,1-4.72-11.35l23.53-57a8.71,8.71,0,0,1,11.36-4.72l91.27,37.66a8.7,8.7,0,0,1,4.72,11.35Z"/><path class="cls-1" d="M530,623.38c6.17,6,11.61,1.11,13.16-3.74S554,618.58,554,618.58c-6-4.46-18.61-5.08-21.81-4.66S523.78,617.32,530,623.38Z"/><path class="cls-1" d="M420.87,687.62a4.45,4.45,0,0,0,6.1,1.56l95.77-56.73a4.45,4.45,0,0,0-4.54-7.66l-95.77,56.74A4.45,4.45,0,0,0,420.87,687.62Z"/><path class="cls-1" d="M506.45,712.9c-11.07,0-23.86-3.08-37.25-12.42-11-7.64-15.74-20.44-13.1-35.12,3.45-19.15,17.92-36.15,34.42-40.42,9.31-2.4,23.16-1.83,36.85,14.16,3.63-3.4,14.82-13.06,24.33-12.59a11.44,11.44,0,0,1,8.63,4.39c5.9,7.24,8.42,20.93,6.27,34.08a52.12,52.12,0,0,1-23.69,36.27A64.33,64.33,0,0,1,506.45,712.9Zm-7.86-86a29,29,0,0,0-7.32,1c-15.17,3.92-29,20.28-32.21,38-1.43,7.92-1.78,22.62,11.85,32.13,15.69,10.94,32.25,14.42,49.22,10.34a59.46,59.46,0,0,0,21-9.52l.13-.09a49.15,49.15,0,0,0,22.38-34.26c2-12.15-.33-25.19-5.64-31.69a8.41,8.41,0,0,0-6.44-3.29c-9.95-.51-23.11,12.7-23.25,12.84l-1.17,1.19-1-1.3C516.34,630.28,506.54,626.9,498.59,626.9Z"/><path class="cls-1" d="M530.15,671.83a24.69,24.69,0,0,1-7.72-1.29A22.45,22.45,0,0,1,512.26,664c-2.55-3-3.41-6.34-2.44-9.28,1.95-5.89,10.54-8.17,19.56-5.19S544,659.45,542,665.34c-1,2.94-3.64,5.07-7.5,6A18.59,18.59,0,0,1,530.15,671.83Zm-8.47-20.6c-4.47,0-8.08,1.6-9,4.41-.64,1.92,0,4.2,1.89,6.42a21.18,21.18,0,0,0,19.24,6.36c2.82-.67,4.72-2.1,5.35-4,1.37-4.15-3.53-9.67-10.71-12A21.57,21.57,0,0,0,521.68,651.23Z"/><circle class="cls-1" cx="489.59" cy="685.08" r="9.06"/><circle class="cls-1" cx="513.84" cy="691.72" r="6.77"/><path class="cls-2" d="M220.87,122.42a3,3,0,0,1-2-.74L203.07,107.9a3,3,0,0,1-.39-4.13l31.15-39.32a3,3,0,0,1,4-.61l11.24,7.66a3,3,0,0,1,1.27,2,3,3,0,0,1-.57,2.3L231.93,99.28l-4.77-3.63,16-21-6.32-4.3-27.64,34.88,11.37,9.9,53.79-64.46L271,34.53l-17.12-.41-42.47,50-4.57-3.89,43.4-51.06a3.06,3.06,0,0,1,2.36-1.06l20.93.51A3,3,0,0,1,276.4,31l4.09,19.91a3,3,0,0,1-.64,2.53l-56.68,67.91a3,3,0,0,1-2.07,1.07Z"/><path class="cls-2" d="M77.22,355.82a1.83,1.83,0,0,1,.76,1l3.59,11.92a1.79,1.79,0,0,1-1.11,2.19l-28,9.9a1.77,1.77,0,0,1-2.22-1L47,372.46a1.75,1.75,0,0,1,0-1.4,1.78,1.78,0,0,1,1-1l16.38-6.15,1.25,3.33L51,372.76l1.81,4.15,24.87-8.78-2.57-8.55L27.76,375l-3.43,9.15,8.46,5.61L69.87,378l1.07,3.39L33,393.36a1.79,1.79,0,0,1-1.51-.21l-10.35-6.87a1.77,1.77,0,0,1-.68-2.1l4.24-11.28a1.78,1.78,0,0,1,1.11-1.07l49.88-16.2a1.82,1.82,0,0,1,1.37.12Z"/><path class="cls-2" d="M90.23,460.22a1.59,1.59,0,0,1,.27.18c25.12,19.52,24.19,40.53,24.14,41.42a1.52,1.52,0,0,1-.89,1.28L53.26,529.84a1.51,1.51,0,0,1-2-.92c-5.37-17.09-28-37.19-28.25-37.39a1.5,1.5,0,0,1,.39-2.5L89,460.21A1.51,1.51,0,0,1,90.23,460.22Zm21.41,40.53c-.14-4.05-2-21.3-22.28-37.44L26.68,490.85c5.36,5,21.45,20.79,26.86,35.58Z"/><path class="cls-2" d="M74.12,409.42a1.91,1.91,0,0,1,.27.16c.7.54,17.23,13.56,15.62,45.32a1.48,1.48,0,0,1-.85,1.28l-64.67,30.9a1.51,1.51,0,0,1-1.44-.08,1.55,1.55,0,0,1-.71-1.26c0-.31-.44-30.58-9.88-45.8a1.54,1.54,0,0,1-.16-1.22,1.5,1.5,0,0,1,.79-.93l59.74-28.37A1.53,1.53,0,0,1,74.12,409.42Zm12.94,44.44c1-26-10.83-38.57-13.82-41.31L15.86,439.8c7.68,13.76,9.14,36.26,9.42,43.57Z"/><path class="cls-2" d="M388.48,650.77A88.76,88.76,0,1,1,477.24,562,88.85,88.85,0,0,1,388.48,650.77Zm0-168.51A79.76,79.76,0,1,0,468.24,562,79.85,79.85,0,0,0,388.48,482.26Z"/><circle class="cls-2" cx="388.48" cy="562.02" r="10.47"/><path class="cls-2" d="M352.1,626.39a4.5,4.5,0,0,1-3.9-6.75l24.51-42.39a4.51,4.51,0,0,1,7.8,4.51L356,624.14A4.52,4.52,0,0,1,352.1,626.39Z"/><path class="cls-2" d="M369.46,553.37a4.45,4.45,0,0,1-2.48-.75l-30.13-19.91a4.5,4.5,0,0,1,5-7.51l30.13,19.91a4.5,4.5,0,0,1-2.48,8.26Z"/><path class="cls-2" d="M124,557.48l37.28,17.13c-.06.1-.12.19-.17.29L157.44,583a4.42,4.42,0,0,0,2.17,5.86l48.83,22.44a4.42,4.42,0,0,0,5.86-2.17L218,601c.05-.11.08-.22.12-.33l38.16,17.54a4.43,4.43,0,0,0,5.87-2.17l30.17-65.66a4.43,4.43,0,0,0-2.17-5.87l-4.84-2.22,11.45-24.93a4.42,4.42,0,0,0-2.17-5.86L182.94,460.23a4.42,4.42,0,0,0-5.86,2.17l-11.46,24.92-7.71-3.55A4.44,4.44,0,0,0,152,486l-30.17,65.66A4.43,4.43,0,0,0,124,557.48Zm85.14,46.79-44.73-20.55,1.83-4L211,600.3Zm-27-137,107.55,49.43-10.51,22.87L241.9,522.37l1.55-3.36a1.09,1.09,0,0,0-.53-1.44l-34.07-15.65a1.08,1.08,0,0,0-1.43.53l-1.55,3.37L171.7,490.11Zm-25,23.55,7.62,3.5a4.28,4.28,0,0,0,1.79,1.54l36.23,16.65-2.22,4.84a1.08,1.08,0,0,0,.53,1.43l34.06,15.66a1.09,1.09,0,0,0,1.44-.53l2.22-4.84,39.4,18.1a4.35,4.35,0,0,0,2.34.36l4.74,2.18L257,611.24,128.88,552.35Z"/><path class="cls-2" d="M668.7,499.9a53.4,53.4,0,1,0,53.39,53.39A53.45,53.45,0,0,0,668.7,499.9Zm36.65,84.94-1.93.11s-6.13-2.38-6.64-2.55-2.21-3.74-2.21-3.74l-5.62-1-11.06,2-15,.51-1.19,5.27,9.7,2.39-.34,3.91,2.55,7.15,5.39,1.66a48.37,48.37,0,0,1-58.72-47.28,48.13,48.13,0,0,1,2.25-14.58l6.66,2.16,7.14,10.72,5.11,9,10.72.85,4.09-7,2.55-11.75,3.92-5.79,7.83-1,5.44,3.24-1.87,8.68,4.77,2.21.17,6.13,3.06,6.47,6.81,4.25,10.38.51,5.79-3.91,2-7.49-1.7-6.47-2.89-8.34-1.87-5.28,2.38-6.64-1-4.42-4.94-4.94-7-3.06-9.87,1.19-6,3.4-4.93,8.17L660,533.72,649.29,537l-3.23-2.72-8.68-2.55-11.79-.34a48.37,48.37,0,1,1,79.76,53.5Z"/><path class="cls-2" d="M595,309.31l157.9-15.76-5.07-50.79L590,258.51ZM743.48,248.1l4.1,41.08-12.15,1.22L734,276.34l-4.86.48,1.4,14.06-10,1-1.77-17.71-4.85.49,1.76,17.7-10,1-1.4-14.06-4.86.48,1.4,14.06-10,1L689,277.14l-4.85.49,1.76,17.7-10,1-1.4-14.05-4.86.48,1.4,14.06-10,1-1.77-17.71-4.85.49,1.77,17.7-10,1-1.4-14.05-4.86.48,1.41,14.06-10,1-1.76-17.71-4.86.49,1.77,17.7-10,1-1.4-14-4.86.48,1.41,14.06L599.39,304l-4.1-41.08Z"/><path class="cls-2" d="M103.06,380.87l95.27,24,7.73-30.65-95.28-24Zm99.33-4.45-6.25,24.79-7.33-1.85,2.14-8.48-2.93-.74-2.14,8.49-6-1.53,2.7-10.68-2.93-.74-2.7,10.68-6.05-1.52,2.14-8.48-2.93-.74-2.14,8.48-6-1.52,2.69-10.69-2.93-.74L159,391.84l-6-1.53,2.14-8.48-2.93-.74L150,389.57l-6.05-1.52,2.69-10.69-2.93-.73L141,387.31l-6.05-1.52,2.14-8.48-2.93-.74L132,385.05l-6-1.53,2.69-10.68-2.93-.74L123,382.79,117,381.26l2.14-8.48L116.2,372l-2.14,8.48-7.33-1.84L113,353.89Z"/><path class="cls-2" d="M738.72,315.57l-103,20.15,27.59,141,103-20.15ZM742.45,456l-4-20.54L756.26,432l4,20.54ZM722,351.38l17.83-3.49,4.49,23-17.83,3.48Zm23.31,24.54,4.5,23L732,402.4l-4.5-23Zm5.48,28,4.5,23-17.83,3.49-4.5-23Zm-11.95-61.12L721,346.33l-4.16-21.24,17.83-3.49Zm-97.07-3.06,70-13.7L737.4,457l-70,13.7Z"/><path class="cls-2" d="M663.22,390l29.32,33.65L707,381.44Zm36-1.81-8.7,25.36L673,393.35Z"/><path class="cls-2" d="M312,17l44.6,55.29.51.32,24.07,8.5-3.4-25.61L333,0Zm60.79,37.16L367,53.49,329.39,6.83l3.16-2.55Zm-51.21-41L327,8.74,364.4,55.08l0,5.42-5.2-.73Zm-2.37,1.91,37.6,46.61-.46,5.42L316.26,17.42Zm58.3,61.49-18.36-6.48.61-7.15L367.38,64l.05-7.42,7.52.85Z"/><path class="cls-2" d="M131.71,663.63l70.41-9.42.54-.27,19.75-16.16-23.64-10.39-70.65,9.46ZM195,631l-3.53,4.57-59.42,8-.54-4Zm-61.61,22.5-.93-7,59-7.9,4.62,2.85-3.33,4.07Zm.4,3,59.36-8,4.4,3.21-63.26,8.47Zm82.82-17.91L201.58,650.9l-5.8-4.24,4.9-6-6.31-3.89,4.62-6Z"/><path class="cls-2" d="M223.87,715.15l24.95,4.13-2.13,12.86a3.37,3.37,0,0,0,2.77,3.87L303,744.88a3.36,3.36,0,0,0,3.87-2.77L309,729.25,334,733.38a3.37,3.37,0,0,0,3.87-2.77l11.31-68.31a3.37,3.37,0,0,0-2.77-3.87L236.28,640.2a3.37,3.37,0,0,0-3.87,2.77L221.1,711.28A3.37,3.37,0,0,0,223.87,715.15Zm77.83,23.77-49-8.12,1.71-10.33,49.05,8.12Zm-64.08-92.76,105.59,17.48-10.56,63.78L227.06,709.94Z"/><path class="cls-2" d="M289.25,661.93a23.06,23.06,0,1,0,19,26.52A23.08,23.08,0,0,0,289.25,661.93Zm-6.61,39.91a17.39,17.39,0,1,1,20-14.32A17.41,17.41,0,0,1,282.64,701.84Z"/><path class="cls-2" d="M240.76,699.24a4.29,4.29,0,1,0,3.52,4.93A4.3,4.3,0,0,0,240.76,699.24Z"/><path class="cls-2" d="M73.39,311a37.11,37.11,0,1,0-4.75,11.88L80,325.24l.38-20.53,12.18,2.56,6.27,7.83,4.25.89-.39,1.83-4-.83-5.49,6.92-8.06-1.15a2,2,0,1,0-.57,4l10.34,1.48,5.38-6.79,5.5,1.15,2-9.66L101,311.48l-6.27-7.83-18.31-3.84-.39,20.53-5.44-1.14A37.23,37.23,0,0,0,73.39,311ZM30.71,333.81a31.09,31.09,0,1,1,36.8-24.05A31.13,31.13,0,0,1,30.71,333.81Z"/><path class="cls-2" d="M39.13,309l-4-6.35,7-4.37L39,289.21l1-.3,23,12.55a3,3,0,0,0,4.07-1.19,3.32,3.32,0,0,0,.3-.83A3,3,0,0,0,66,296.2l-25.2-13.73-9.5,2.71,3.67,10.58-8,5,4.63,7.45-6.42,6.61,5,7,28.72-1.17a3,3,0,1,0-.24-6l-25.48,1-.23-.32Z"/><path class="cls-2" d="M89.1,320.33a1.84,1.84,0,0,0,.05-.41V309.06a2,2,0,1,0-4,0v10.87a2,2,0,0,0,3.95.41Z"/><path class="cls-2" d="M165.78,302.87l4.65-12.06-3.32-7.48h0l-23.79-53.62-41.73,18.51L123.66,298h0l7.93,17.89,4.66.1Zm-60.91-53.39L142.06,233l21.77,49.08-37.19,16.49-.71-1.59h0Zm22.78,51.36,37.19-16.5,2.9,6.54L163.83,301l-28.08,12.45-2.52-.06Z"/><path class="cls-2" d="M181.18,273.34l-16.74,43a1.24,1.24,0,1,0,2.32.9l16.74-43a1.24,1.24,0,0,0-2.32-.9Z"/><path class="cls-2" d="M160.08,310.45a1.25,1.25,0,0,0-1.61.71L151.17,330a1.24,1.24,0,1,0,2.31.9l7.31-18.79A1.24,1.24,0,0,0,160.08,310.45Z"/><path d="M115.36,566.47a25.19,25.19,0,0,0-8.49-15.41A24.61,24.61,0,0,0,93.59,545a25.67,25.67,0,0,0-28.9,21.83c-.09.6-.16,1.21-.24,1.82V572c.1.72.19,1.45.3,2.17a25.72,25.72,0,0,0,21.79,21.5c.6.09,1.21.15,1.81.23h3.4c.73-.1,1.45-.18,2.17-.3a25.68,25.68,0,0,0,21.5-21.78c.09-.6.16-1.21.23-1.82v-3.4C115.56,567.92,115.47,567.19,115.36,566.47ZM103.3,550.36a24.06,24.06,0,0,1,8.42,9.74.88.88,0,0,1,0,.6c-.72,2.18-1.47,4.34-2.2,6.52a.51.51,0,0,1-.6.42c-1.06,0-2.13,0-3.2,0s-2.13,0-3.19,0a.83.83,0,0,1-.58-.26c-2.58-3.16-5.15-6.34-7.72-9.51a.77.77,0,0,1-.18-.8q.75-2.71,1.46-5.44a.58.58,0,0,1,.56-.5c2-.31,4-.6,6-1A1.39,1.39,0,0,1,103.3,550.36Zm-2.66,18.42c-2.2,3.37-4.39,6.75-6.61,10.16l-11.67-3.11c-.32-.08-.37-.26-.39-.54-.07-1.41-.14-2.82-.22-4.23-.12-2.4-.24-4.79-.39-7.19a.65.65,0,0,1,.5-.78c3.58-1.35,7.14-2.73,10.7-4.1.29-.11.45-.13.67.14,2.44,3,4.89,6.06,7.35,9.09A.4.4,0,0,1,100.64,568.78Zm-.18-20-2.19.38c-.93.16-1.86.31-2.8.45a.58.58,0,0,1-.4-.05c-1.08-1-2.13-2-3.3-3.1A24.12,24.12,0,0,1,100.46,548.74Zm-25.9,3.48a.75.75,0,0,1,.28-.39,23.85,23.85,0,0,1,14.38-5.44.47.47,0,0,1,.34.13c1.4,1.33,2.79,2.67,4.2,4a.64.64,0,0,1,.22.73c-.53,1.91-1,3.82-1.55,5.72a.87.87,0,0,1-.45.51q-5.33,2.07-10.65,4.09a.88.88,0,0,1-.64,0q-3.3-1.72-6.57-3.48a2.08,2.08,0,0,1-.36-.3C74,555.8,74.29,554,74.56,552.22ZM72.67,554c-.2,1.36-.4,2.72-.61,4.08a.6.6,0,0,1-.21.31l-3.8,2.83-.19.07A21.74,21.74,0,0,1,72.67,554Zm-4.6,25.92a23.67,23.67,0,0,1-2-9.45,25.27,25.27,0,0,1,.79-6.07,1,1,0,0,1,.34-.51c1.9-1.43,3.82-2.84,5.72-4.27a.51.51,0,0,1,.63-.05c2,1.05,3.91,2.07,5.85,3.13a.83.83,0,0,1,.35.57c.19,3.46.36,6.92.54,10.38,0,.83.1,1.66.12,2.5a.75.75,0,0,1-.18.52c-2,2-3.92,3.9-5.9,5.84a.48.48,0,0,1-.45.08c-1.83-.76-3.64-1.54-5.46-2.33A.73.73,0,0,1,68.07,579.91Zm1.32,2.59a3.34,3.34,0,0,1,.46.14l3.48,1.5a.94.94,0,0,1,.41.32c1,1.91,2.06,3.83,3.09,5.75A22.79,22.79,0,0,1,69.39,582.5ZM93.74,594a23.78,23.78,0,0,1-13.95-2,.75.75,0,0,1-.32-.29q-2.1-3.91-4.19-7.83s0,0,.11.06q3.09-3.16,6.16-6.34a.56.56,0,0,1,.65-.17c3.63,1,7.26,1.94,10.88,2.93a1,1,0,0,1,.54.44c1.56,2.56,3.09,5.13,4.66,7.74l-4.21,5.3A.58.58,0,0,1,93.74,594Zm2.82-.72c1-1.25,2-2.5,3-3.74a.88.88,0,0,1,.52-.22l5-.81a4.91,4.91,0,0,1,.55,0A22.53,22.53,0,0,1,96.56,593.32Zm16.57-16.42a24.13,24.13,0,0,1-5,9.25,1.2,1.2,0,0,1-.78.43c-1.94.27-3.88.61-5.81.92-.58.09-1.25.39-1.7.19s-.67-.89-1-1.38c-1.23-2-2.45-4.07-3.68-6.12l6.07-9.35c.35-.53.6-1.25,1.09-1.51a4.22,4.22,0,0,1,1.86-.09c1.41,0,2.83,0,4.25,0a.78.78,0,0,1,.8.46c1.24,2.13,2.52,4.23,3.81,6.33A1,1,0,0,1,113.13,576.9Zm.61-2.83c-.29-.46-.51-.83-.73-1.19-.72-1.2-1.45-2.39-2.15-3.59a.78.78,0,0,1-.1-.59c.62-1.89,1.27-3.77,1.91-5.66,0-.07.08-.14.14-.25A24.16,24.16,0,0,1,113.74,574.07Z"/></g></g></svg>